<?xml version="1.0" standalone="no"?>
<!DOCTYPE svg PUBLIC "-//W3C//DTD SVG 20010904//EN"
 "http://www.w3.org/TR/2001/REC-SVG-20010904/DTD/svg10.dtd">
<svg version="1.0" xmlns="http://www.w3.org/2000/svg"
 width="1024.000000pt" height="1024.000000pt" viewBox="0 0 1024.000000 1024.000000"
 preserveAspectRatio="xMidYMid meet">

<g transform="translate(0.000000,1024.000000) scale(0.100000,-0.100000)"
fill="#000000" stroke="none">
<path d="M610 10227 c0 -29 819 -9200 822 -9202 11 -8 3667 -1019 3683 -1018
28 1 3678 1013 3688 1022 6 6 827 9138 827 9198 0 11 -851 13 -4510 13 -3693
0 -4510 -2 -4510 -13z m7340 -1874 c0 -5 -54 -611 -120 -1348 -66 -737 -181
-2028 -256 -2870 -75 -841 -139 -1533 -143 -1537 -3 -3 -525 -150 -1159 -326
l-1154 -320 -1156 321 c-637 176 -1159 322 -1161 323 -3 2 -160 1732 -161
1767 0 4 257 7 570 7 536 0 570 -1 570 -17 1 -40 78 -874 82 -878 7 -8 1233
-337 1253 -337 31 1 1249 332 1255 342 8 12 134 1439 128 1445 -2 3 -882 8
-1956 11 l-1951 7 -6 41 c-6 49 -95 1044 -95 1069 0 16 115 17 2055 17 l2055
0 4 23 c6 27 96 1062 96 1100 l0 27 -2155 0 c-1185 0 -2155 1 -2156 3 -5 13
-104 1129 -100 1132 8 8 5661 5 5661 -2z"/>
</g>
</svg>
