<?xml version="1.0" standalone="no"?>
<!DOCTYPE svg PUBLIC "-//W3C//DTD SVG 20010904//EN"
 "http://www.w3.org/TR/2001/REC-SVG-20010904/DTD/svg10.dtd">
<svg version="1.0" xmlns="http://www.w3.org/2000/svg"
 width="768.000000pt" height="768.000000pt" viewBox="0 0 768.000000 768.000000"
 preserveAspectRatio="xMidYMid meet">

<g transform="translate(0.000000,768.000000) scale(0.100000,-0.100000)"
fill="#000000" stroke="none">
<path d="M456 7648 c2 -18 139 -1552 304 -3408 165 -1856 302 -3394 305 -3417
6 -40 9 -43 48 -54 23 -6 638 -179 1367 -385 729 -207 1332 -376 1340 -376 8
-1 637 173 1398 387 1213 341 1382 391 1382 408 0 18 593 6688 606 6815 l6 62
-3380 0 -3381 0 5 -32z m5499 -1465 c-4 -49 -20 -220 -36 -380 -16 -161 -29
-311 -29 -333 l0 -40 -1624 0 -1625 0 5 -32 c2 -18 18 -195 34 -393 17 -198
33 -379 36 -402 l5 -43 1545 0 c849 0 1544 -1 1544 -3 0 -2 -7 -50 -15 -108
-8 -57 -59 -624 -115 -1259 -55 -635 -103 -1175 -106 -1200 l-6 -45 -847 -234
c-466 -128 -859 -235 -873 -238 -24 -5 -1742 460 -1760 476 -6 5 -108 1248
-108 1316 l0 25 420 0 420 0 4 -22 c3 -13 17 -165 32 -338 14 -173 27 -316 28
-316 0 -1 212 -59 469 -128 l468 -126 473 127 472 127 48 511 c27 280 51 525
54 542 l5 33 -1472 0 c-1170 0 -1471 3 -1471 13 0 6 -47 536 -105 1177 -57
641 -107 1213 -111 1273 l-7 107 2127 0 2127 0 -6 -87z"/>
</g>
</svg>
